<mxfile host="app.diagrams.net" modified="2023-04-18T10:56:58.819Z" agent="Mozilla/5.0 (Windows NT 10.0; Win64; x64) AppleWebKit/537.36 (KHTML, like Gecko) Chrome/111.0.0.0 Safari/537.36" etag="CEemm5dtPw57lOdts7RK" version="21.1.8" type="github">
  <diagram name="Page-1" id="qJdH8NxO3U0Arlhxn-2l">
    <mxGraphModel dx="880" dy="452" grid="1" gridSize="10" guides="1" tooltips="1" connect="1" arrows="1" fold="1" page="1" pageScale="1" pageWidth="850" pageHeight="1100" math="0" shadow="0">
      <root>
        <mxCell id="0" />
        <mxCell id="1" parent="0" />
        <mxCell id="V_Gxwe04usGqOwnKJpzB-19" value="&lt;pre&gt;&lt;br&gt;&lt;/pre&gt;" style="ellipse;whiteSpace=wrap;html=1;aspect=fixed;fillStyle=auto;dropTarget=0;container=0;fixDash=0;snapToPoint=0;collapsible=0;" vertex="1" parent="1">
          <mxGeometry x="280" y="70" width="280" height="280" as="geometry" />
        </mxCell>
        <mxCell id="V_Gxwe04usGqOwnKJpzB-22" value="" style="strokeWidth=2;html=1;shape=mxgraph.flowchart.database;whiteSpace=wrap;direction=north;rotation=0;" vertex="1" parent="1">
          <mxGeometry x="280" y="380" width="60" height="60" as="geometry" />
        </mxCell>
        <mxCell id="V_Gxwe04usGqOwnKJpzB-23" value="" style="strokeWidth=2;html=1;shape=mxgraph.flowchart.stored_data;whiteSpace=wrap;direction=west;" vertex="1" parent="1">
          <mxGeometry x="330" y="380" width="60" height="60" as="geometry" />
        </mxCell>
        <mxCell id="V_Gxwe04usGqOwnKJpzB-24" value="" style="strokeWidth=2;html=1;shape=mxgraph.flowchart.stored_data;whiteSpace=wrap;direction=west;" vertex="1" parent="1">
          <mxGeometry x="380" y="380" width="60" height="60" as="geometry" />
        </mxCell>
        <mxCell id="V_Gxwe04usGqOwnKJpzB-25" value="" style="strokeWidth=2;html=1;shape=mxgraph.flowchart.stored_data;whiteSpace=wrap;direction=west;" vertex="1" parent="1">
          <mxGeometry x="430" y="380" width="60" height="60" as="geometry" />
        </mxCell>
        <mxCell id="V_Gxwe04usGqOwnKJpzB-48" style="edgeStyle=orthogonalEdgeStyle;rounded=0;orthogonalLoop=1;jettySize=auto;html=1;" edge="1" parent="1" source="V_Gxwe04usGqOwnKJpzB-38" target="V_Gxwe04usGqOwnKJpzB-47">
          <mxGeometry relative="1" as="geometry" />
        </mxCell>
        <mxCell id="V_Gxwe04usGqOwnKJpzB-38" value="" style="image;html=1;image=img/lib/clip_art/people/Worker_Black_128x128.png" vertex="1" parent="1">
          <mxGeometry x="210" y="700" width="80" height="80" as="geometry" />
        </mxCell>
        <mxCell id="V_Gxwe04usGqOwnKJpzB-39" value="Developer_1" style="text;html=1;align=center;verticalAlign=middle;resizable=0;points=[];autosize=1;strokeColor=none;fillColor=none;" vertex="1" parent="1">
          <mxGeometry x="205" y="770" width="90" height="30" as="geometry" />
        </mxCell>
        <mxCell id="V_Gxwe04usGqOwnKJpzB-49" style="edgeStyle=orthogonalEdgeStyle;rounded=0;orthogonalLoop=1;jettySize=auto;html=1;" edge="1" parent="1" source="V_Gxwe04usGqOwnKJpzB-40" target="V_Gxwe04usGqOwnKJpzB-47">
          <mxGeometry relative="1" as="geometry" />
        </mxCell>
        <mxCell id="V_Gxwe04usGqOwnKJpzB-40" value="" style="image;html=1;image=img/lib/clip_art/people/Worker_Man_128x128.png" vertex="1" parent="1">
          <mxGeometry x="205" y="790" width="80" height="80" as="geometry" />
        </mxCell>
        <mxCell id="V_Gxwe04usGqOwnKJpzB-50" style="edgeStyle=orthogonalEdgeStyle;rounded=0;orthogonalLoop=1;jettySize=auto;html=1;" edge="1" parent="1" source="V_Gxwe04usGqOwnKJpzB-44">
          <mxGeometry relative="1" as="geometry">
            <mxPoint x="430" y="870" as="targetPoint" />
          </mxGeometry>
        </mxCell>
        <mxCell id="V_Gxwe04usGqOwnKJpzB-44" value="" style="image;html=1;image=img/lib/clip_art/people/Worker_Woman_128x128.png" vertex="1" parent="1">
          <mxGeometry x="210" y="880" width="80" height="80" as="geometry" />
        </mxCell>
        <mxCell id="V_Gxwe04usGqOwnKJpzB-45" value="Developer_2" style="text;html=1;align=center;verticalAlign=middle;resizable=0;points=[];autosize=1;strokeColor=none;fillColor=none;" vertex="1" parent="1">
          <mxGeometry x="200" y="860" width="90" height="30" as="geometry" />
        </mxCell>
        <mxCell id="V_Gxwe04usGqOwnKJpzB-46" value="Developer_3" style="text;html=1;align=center;verticalAlign=middle;resizable=0;points=[];autosize=1;strokeColor=none;fillColor=none;" vertex="1" parent="1">
          <mxGeometry x="205" y="950" width="90" height="30" as="geometry" />
        </mxCell>
        <mxCell id="V_Gxwe04usGqOwnKJpzB-53" style="edgeStyle=orthogonalEdgeStyle;rounded=0;orthogonalLoop=1;jettySize=auto;html=1;entryX=0;entryY=0.5;entryDx=0;entryDy=0;" edge="1" parent="1" source="V_Gxwe04usGqOwnKJpzB-47" target="V_Gxwe04usGqOwnKJpzB-52">
          <mxGeometry relative="1" as="geometry">
            <mxPoint x="500" y="830" as="targetPoint" />
          </mxGeometry>
        </mxCell>
        <mxCell id="V_Gxwe04usGqOwnKJpzB-47" value="" style="dashed=0;outlineConnect=0;html=1;align=center;labelPosition=center;verticalLabelPosition=bottom;verticalAlign=top;shape=mxgraph.weblogos.github" vertex="1" parent="1">
          <mxGeometry x="388" y="792.5" width="75" height="75" as="geometry" />
        </mxCell>
        <mxCell id="V_Gxwe04usGqOwnKJpzB-51" value="Github" style="text;html=1;align=center;verticalAlign=middle;resizable=0;points=[];autosize=1;strokeColor=none;fillColor=none;" vertex="1" parent="1">
          <mxGeometry x="395.5" y="870" width="60" height="30" as="geometry" />
        </mxCell>
        <mxCell id="V_Gxwe04usGqOwnKJpzB-57" value="" style="edgeStyle=orthogonalEdgeStyle;rounded=0;orthogonalLoop=1;jettySize=auto;html=1;" edge="1" parent="1" source="V_Gxwe04usGqOwnKJpzB-52" target="V_Gxwe04usGqOwnKJpzB-56">
          <mxGeometry relative="1" as="geometry" />
        </mxCell>
        <mxCell id="V_Gxwe04usGqOwnKJpzB-52" value="Integration" style="rounded=1;whiteSpace=wrap;html=1;" vertex="1" parent="1">
          <mxGeometry x="520" y="800" width="120" height="60" as="geometry" />
        </mxCell>
        <mxCell id="V_Gxwe04usGqOwnKJpzB-54" value="3 Days" style="text;html=1;align=center;verticalAlign=middle;resizable=0;points=[];autosize=1;strokeColor=none;fillColor=none;" vertex="1" parent="1">
          <mxGeometry x="315" y="830" width="60" height="30" as="geometry" />
        </mxCell>
        <mxCell id="V_Gxwe04usGqOwnKJpzB-55" value="3 Days" style="text;html=1;align=center;verticalAlign=middle;resizable=0;points=[];autosize=1;strokeColor=none;fillColor=none;" vertex="1" parent="1">
          <mxGeometry x="455.5" y="830" width="60" height="30" as="geometry" />
        </mxCell>
        <mxCell id="V_Gxwe04usGqOwnKJpzB-56" value="Testing" style="rounded=1;whiteSpace=wrap;html=1;" vertex="1" parent="1">
          <mxGeometry x="720" y="800" width="120" height="60" as="geometry" />
        </mxCell>
        <mxCell id="V_Gxwe04usGqOwnKJpzB-58" value="3 Days" style="text;html=1;align=center;verticalAlign=middle;resizable=0;points=[];autosize=1;strokeColor=none;fillColor=none;" vertex="1" parent="1">
          <mxGeometry x="650" y="830" width="60" height="30" as="geometry" />
        </mxCell>
        <mxCell id="V_Gxwe04usGqOwnKJpzB-59" value="" style="image;html=1;image=img/lib/atlassian/Jira_Logo.svg;" vertex="1" parent="1">
          <mxGeometry x="550" y="630" width="42" height="42" as="geometry" />
        </mxCell>
        <mxCell id="V_Gxwe04usGqOwnKJpzB-60" value="Jira" style="text;html=1;align=center;verticalAlign=middle;resizable=0;points=[];autosize=1;strokeColor=none;fillColor=none;" vertex="1" parent="1">
          <mxGeometry x="551" y="672" width="40" height="30" as="geometry" />
        </mxCell>
        <mxCell id="V_Gxwe04usGqOwnKJpzB-63" value="" style="curved=1;endArrow=classic;html=1;rounded=0;exitX=0.5;exitY=0;exitDx=0;exitDy=0;" edge="1" parent="1" source="V_Gxwe04usGqOwnKJpzB-56">
          <mxGeometry width="50" height="50" relative="1" as="geometry">
            <mxPoint x="740" y="765" as="sourcePoint" />
            <mxPoint x="600" y="660" as="targetPoint" />
            <Array as="points">
              <mxPoint x="780" y="680" />
              <mxPoint x="730" y="670" />
            </Array>
          </mxGeometry>
        </mxCell>
        <mxCell id="V_Gxwe04usGqOwnKJpzB-64" value="Bug" style="text;html=1;align=center;verticalAlign=middle;resizable=0;points=[];autosize=1;strokeColor=none;fillColor=none;" vertex="1" parent="1">
          <mxGeometry x="690" y="642" width="40" height="30" as="geometry" />
        </mxCell>
        <mxCell id="V_Gxwe04usGqOwnKJpzB-65" value="" style="curved=1;endArrow=classic;html=1;rounded=0;exitX=0;exitY=0.5;exitDx=0;exitDy=0;entryX=0.75;entryY=0;entryDx=0;entryDy=0;" edge="1" parent="1" source="V_Gxwe04usGqOwnKJpzB-59" target="V_Gxwe04usGqOwnKJpzB-38">
          <mxGeometry width="50" height="50" relative="1" as="geometry">
            <mxPoint x="425" y="660" as="sourcePoint" />
            <mxPoint x="475" y="610" as="targetPoint" />
            <Array as="points">
              <mxPoint x="475" y="650" />
              <mxPoint x="350" y="660" />
            </Array>
          </mxGeometry>
        </mxCell>
        <mxCell id="V_Gxwe04usGqOwnKJpzB-66" value="7 Days" style="text;html=1;align=center;verticalAlign=middle;resizable=0;points=[];autosize=1;strokeColor=none;fillColor=none;" vertex="1" parent="1">
          <mxGeometry x="350" y="628" width="60" height="30" as="geometry" />
        </mxCell>
      </root>
    </mxGraphModel>
  </diagram>
</mxfile>
